<svg xmlns="http://www.w3.org/2000/svg" viewBox="0 0 54 78"><defs><style>.b{fill:#231815}.c{fill:#040000}.d{fill:#ccc}</style></defs><path style="fill:#fff" d="M0 0h54v78H0z"/><path class="b" d="M23.132 38c-.035-.127-.061-1.649-.061-2.257 0-.419.007-.834.02-1.285h.509v-.486h-.493c.01-.259.02-.531.033-.827l.019-.429a.163.163 0 0 0-.169-.178.263.263 0 0 0-.116.03 4.485 4.485 0 0 1-.679.214 7.826 7.826 0 0 1-.789.126l-.081.01v.424h.451a.718.718 0 0 1 .327.041 2.91 2.91 0 0 1 .038.59h-2.478v.486h2.482v3.034l-.056 1.052h1.9v-.46h-.473a.608.608 0 0 1-.384-.085ZM27.489 34.451h.825v-.484h-.825c.01-1.907-.018-2.385-.007-2.658l.02-.429a.163.163 0 0 0-.17-.178.25.25 0 0 0-.115.03 4.556 4.556 0 0 1-.679.214l-.072.016.009 3h-2.284v.484h.432v7.315l.071.015a4.52 4.52 0 0 1 .679.214.254.254 0 0 0 .116.03.163.163 0 0 0 .17-.178l-.02-.429c-.008-.2 0-6.905 0-6.967h.837l-.008 10.814.072.015a4.556 4.556 0 0 1 .679.214.254.254 0 0 0 .116.03.163.163 0 0 0 .169-.178l-.019-.429c-.012-.273 0-7.537 0-7.537l.718 1.159h.933l-1.651-2.685ZM32.67 36.238a.162.162 0 0 0-.169-.177.265.265 0 0 0-.117.029 3.757 3.757 0 0 1-.616.215l-.072.016V37.9a.989.989 0 0 1-.033.121c-.022 0-.064.008-.144.013a6.107 6.107 0 0 1-1.05-.061c-.031-.193-.055-1.3-.055-1.825 0-.854.024-2.992.068-4.012l.019-.429a.162.162 0 0 0-.17-.177.261.261 0 0 0-.116.029 4.387 4.387 0 0 1-.678.215l-.072.016.023 3.287v2.411l-.056 1.052h3.192v-1.387c.009-.12.018-.273.027-.486Z"/><path class="c" d="M22.585 48.136a2.212 2.212 0 0 0-.217-.276c-.109-.124-.171-.191-.185-.2a.035.035 0 0 0-.023-.007v.1c0 .05 0 .117.006.2a.286.286 0 0 0 .008.07.033.033 0 0 0 .011.013.094.094 0 0 0 .039.012.944.944 0 0 0 .1.006v.082h-.569v-.082a1.006 1.006 0 0 0 .107-.007.065.065 0 0 0 .025-.012.039.039 0 0 0 .011-.02.911.911 0 0 0 .01-.167V47.2c0-.11 0-.21-.008-.3a.336.336 0 0 0-.009-.082.038.038 0 0 0-.011-.011.124.124 0 0 0-.038-.011q-.018 0-.09-.006v-.076c.1-.012.167-.022.21-.032s.106-.027.187-.053l.023.012-.007.223v.744c.022-.017.048-.038.076-.064.061-.055.11-.1.15-.139l.076-.076c.036-.036.067-.068.091-.1v-.057h.324v.08l-.108.007a.112.112 0 0 0-.034.011.648.648 0 0 0-.095.066c-.06.048-.1.077-.108.089l-.029.027-.087.075q.09.106.3.351a.923.923 0 0 0 .159.16.152.152 0 0 0 .062.015v.082M23.454 48.136v-.075a.562.562 0 0 0 .131-.018.051.051 0 0 0 .021-.037 2.3 2.3 0 0 0 .01-.29 3.647 3.647 0 0 0-.009-.366.042.042 0 0 0-.013-.026.4.4 0 0 0-.14-.015v-.078a1.985 1.985 0 0 0 .234-.034 1.175 1.175 0 0 0 .172-.056l.025.014c-.009.106-.013.206-.013.3v.345a1.5 1.5 0 0 0 .008.211.034.034 0 0 0 .017.025.413.413 0 0 0 .134.017v.08ZM24.566 48.136v-.08a.347.347 0 0 0 .11-.011.038.038 0 0 0 .022-.017.175.175 0 0 0 .011-.074v-.538a.3.3 0 0 0-.008-.074.034.034 0 0 0-.019-.013.541.541 0 0 0-.116-.01v-.08c.125-.021.207-.037.246-.047a.91.91 0 0 0 .133-.05l.028.013v.207q.066-.069.1-.114a.464.464 0 0 1 .079-.081.174.174 0 0 1 .1-.025.165.165 0 0 1 .068.013l-.007.145v.136l-.043.014a.153.153 0 0 0-.05-.047.164.164 0 0 0-.187.016.141.141 0 0 0-.051.076V47.907a.556.556 0 0 0 .005.1.049.049 0 0 0 .021.028.171.171 0 0 0 .071.014l.084.008v.08ZM26.973 48.136v-.078a.426.426 0 0 0 .144-.022.054.054 0 0 0 .02-.041c0-.036.008-.147.009-.334v-.308h-.168v-.05l.142-.074a.03.03 0 0 0 .013-.025c0-.032 0-.072.005-.119a.508.508 0 0 1 .013-.1.247.247 0 0 1 .03-.058 1.258 1.258 0 0 1 .15-.145l.124-.111a.215.215 0 0 1 .069-.04.242.242 0 0 1 .088-.015.358.358 0 0 1 .107.018 1.376 1.376 0 0 0-.014.205l-.041.019a.181.181 0 0 0-.057-.04.19.19 0 0 0-.068-.011.172.172 0 0 0-.094.023.073.073 0 0 0-.033.044.964.964 0 0 0-.013.2v.142h.122c.058 0 .109 0 .152-.006l.014.01c0 .012-.006.024-.009.036l-.016.091h-.26v.537a.724.724 0 0 0 .009.12.051.051 0 0 0 .016.024.078.078 0 0 0 .035.013l.139.011v.078ZM28.962 48.136l-.007-.008.006-.079v-.079c-.026.021-.05.041-.07.059l-.116.109a.418.418 0 0 1-.142.026.3.3 0 0 1-.218-.076.263.263 0 0 1-.079-.2V47.423a.208.208 0 0 0-.008-.074.048.048 0 0 0-.025-.021.491.491 0 0 0-.117-.011v-.078a1.358 1.358 0 0 0 .178-.024 2.292 2.292 0 0 0 .229-.066l.015.011c-.011.135-.016.26-.016.375v.115a1.556 1.556 0 0 0 .008.2.155.155 0 0 0 .048.1.158.158 0 0 0 .1.032.2.2 0 0 0 .124-.038.253.253 0 0 0 .07-.08.319.319 0 0 0 .012-.11V47.434a.224.224 0 0 0-.009-.085.034.034 0 0 0-.021-.014.818.818 0 0 0-.125-.011v-.078c.106-.014.178-.025.217-.034s.1-.027.194-.056l.02.011-.012.188c0 .134-.008.209-.008.225v.21a1.448 1.448 0 0 0 .01.231.034.034 0 0 0 .015.026.442.442 0 0 0 .126.015v.082ZM30.5 48.136l-.009-.008.005-.081v-.084l-.155.133a.5.5 0 0 1-.064.053.291.291 0 0 1-.1.015.366.366 0 0 1-.282-.124.5.5 0 0 1-.111-.341.645.645 0 0 1 .033-.214.337.337 0 0 1 .057-.111.938.938 0 0 1 .137-.109.968.968 0 0 1 .164-.1.385.385 0 0 1 .129-.018.375.375 0 0 1 .081.007.723.723 0 0 1 .111.038v-.314a.154.154 0 0 0-.011-.067.038.038 0 0 0-.021-.013q-.014 0-.126-.006v-.076a1.643 1.643 0 0 0 .405-.09l.027.015c-.008.183-.012.291-.013.323v.844c0 .047 0 .1.006.151a.186.186 0 0 0 .01.07.037.037 0 0 0 .023.019.667.667 0 0 0 .111.014v.073Zm0-.728a.372.372 0 0 0-.092-.088.29.29 0 0 0-.148-.039.181.181 0 0 0-.115.034.209.209 0 0 0-.067.111.669.669 0 0 0-.022.177.455.455 0 0 0 .08.288.193.193 0 0 0 .159.075.212.212 0 0 0 .133-.043.163.163 0 0 0 .067-.083 1.373 1.373 0 0 0 .005-.24ZM31.871 48.136l-.009-.011.009-.134c-.025.016-.1.07-.217.162a.4.4 0 0 1-.088.01.23.23 0 0 1-.175-.066.259.259 0 0 1-.063-.188.293.293 0 0 1 .028-.137.257.257 0 0 1 .06-.078.37.37 0 0 1 .1-.049 2.191 2.191 0 0 1 .355-.09.278.278 0 0 0-.05-.185.2.2 0 0 0-.162-.064.289.289 0 0 0-.084.012.139.139 0 0 0-.041.02l-.043.1-.07-.016.006-.132c.051-.034.1-.064.145-.089a.6.6 0 0 1 .1-.046.376.376 0 0 1 .107-.011.45.45 0 0 1 .184.032.271.271 0 0 1 .106.076.252.252 0 0 1 .047.094.506.506 0 0 1 .013.127c0 .022 0 .079-.005.172v.15a1.306 1.306 0 0 0 .01.222.032.032 0 0 0 .017.024.387.387 0 0 0 .1.014v.077Zm0-.5a1.384 1.384 0 0 0-.159.045.2.2 0 0 0-.1.065.154.154 0 0 0-.028.1.146.146 0 0 0 .033.1.116.116 0 0 0 .088.036.184.184 0 0 0 .093-.027.208.208 0 0 0 .073-.068Z"/><path class="b" d="M23.736 46.653a.157.157 0 0 1 .156.156.152.152 0 0 1-.046.112.147.147 0 0 1-.11.046.151.151 0 0 1-.111-.046.156.156 0 0 1-.046-.112.157.157 0 0 1 .157-.156Z"/><path class="c" d="M25.81 48.136v-.075a.562.562 0 0 0 .131-.018.051.051 0 0 0 .021-.037 2.3 2.3 0 0 0 .01-.29 3.647 3.647 0 0 0-.009-.366.042.042 0 0 0-.013-.026.392.392 0 0 0-.14-.015v-.078a1.985 1.985 0 0 0 .234-.034 1.175 1.175 0 0 0 .172-.056l.025.014c-.009.106-.013.206-.013.3v.345a1.5 1.5 0 0 0 .008.211.034.034 0 0 0 .017.025.413.413 0 0 0 .134.017v.08Z"/><path class="b" d="M26.092 46.653a.157.157 0 0 1 .156.156.152.152 0 0 1-.046.112.147.147 0 0 1-.11.046.151.151 0 0 1-.111-.046.156.156 0 0 1-.046-.112.157.157 0 0 1 .157-.156Z"/><path class="d" d="M.499.5h1v77h-1zM52.5.5h1v77h-1z"/><path class="d" d="M.473.5h53v1h-53zM.473 76.5h53v1h-53zM51.75 1.75h.5v74.5h-.5zM1.75 1.75h.5v74.5h-.5z"/><path class="d" d="M1.75 1.75h50.5v.5H1.75zM1.75 75.75h50.5v.5H1.75z"/></svg>