<svg xmlns="http://www.w3.org/2000/svg" viewBox="0 0 75.97 102"><defs><style>.a{fill:#fff;}</style></defs><title>logo</title><path class="a" d="M20.28,42.61c-.21-.74-.36-9.63-.36-13.18,0-2.45,0-4.87.12-7.51h3V19.08H20.12c.06-1.51.12-3.1.2-4.83l.11-2.5a1,1,0,0,0-1-1,1.62,1.62,0,0,0-.68.17,25.16,25.16,0,0,1-4,1.25,44.76,44.76,0,0,1-4.61.74l-.47.06V15.4h2.63a4.17,4.17,0,0,1,1.91.24h0a16.66,16.66,0,0,1,.22,3.44H0v2.84h14.5V39.64l-.33,6.15h11.1V43.1H22.51A3.53,3.53,0,0,1,20.28,42.61Z" transform="translate(-0.01 0)"/><path class="a" d="M45.73,21.9h4.81V19.07H45.73c.06-11.14-.11-13.93,0-15.52L45.8,1a1,1,0,0,0-1-1,1.47,1.47,0,0,0-.68.18,26.51,26.51,0,0,1-4,1.24l-.42.1,0,17.55H26.46V21.9H29l0,42.73.42.09a25.49,25.49,0,0,1,4,1.25,1.59,1.59,0,0,0,.68.17,1,1,0,0,0,1-1l-.11-2.5c0-1.17,0-40.34,0-40.7h4.89l-.05,63.16.42.09a27.56,27.56,0,0,1,4,1.25,1.43,1.43,0,0,0,.67.18,1,1,0,0,0,1-1L45.7,83c-.07-1.59,0-44,0-44l4.19,6.77h5.45L45.73,30.09Z" transform="translate(-0.01 0)"/><path class="a" d="M76,32.34a1,1,0,0,0-1-1,1.62,1.62,0,0,0-.68.17,22.88,22.88,0,0,1-3.6,1.26l-.42.09V42a5,5,0,0,1-.2.7c-.12,0-.37,0-.84.08-2.15,0-5.37,0-6.13-.35-.18-1.13-.32-7.59-.32-10.66,0-5,.14-17.48.4-23.44l.11-2.5a1,1,0,0,0-1-1,1.62,1.62,0,0,0-.68.17,25.23,25.23,0,0,1-4,1.25l-.42.1.13,19.2V39.63l-.33,6.15H75.72v-8.1c0-.7.1-1.59.16-2.84Z" transform="translate(-0.01 0)"/><path class="a" d="M17.08,101.84a13,13,0,0,0-1.27-1.62c-.63-.72-1-1.11-1.08-1.18a.22.22,0,0,0-.13,0v.59c0,.29,0,.68,0,1.18a1.5,1.5,0,0,0,0,.4.12.12,0,0,0,.06.08.57.57,0,0,0,.23.07l.57,0v.48H12.22v-.48a4.87,4.87,0,0,0,.62,0,.26.26,0,0,0,.14-.06.19.19,0,0,0,.07-.12,6.27,6.27,0,0,0,.06-1c0-.73,0-1.35,0-1.87V96.35c0-.64,0-1.23-.05-1.75a2,2,0,0,0-.05-.47.23.23,0,0,0-.07-.07.53.53,0,0,0-.22-.06,3.17,3.17,0,0,0-.52,0v-.44c.56-.07,1-.13,1.22-.19A10.8,10.8,0,0,0,14.53,93l.14.07-.05,1.3c0,.72,0,1.44,0,2.17v2.18c.13-.1.28-.22.44-.37.36-.32.65-.59.88-.82s.23-.23.44-.44l.54-.56v-.34h1.88v.47l-.62,0a.66.66,0,0,0-.2.06,3.67,3.67,0,0,0-.56.39c-.35.28-.56.45-.63.52l-.17.15-.51.45,1.78,2a6.14,6.14,0,0,0,.93.93.87.87,0,0,0,.37.09v.48" transform="translate(-0.01 0)"/><path class="a" d="M22.16,101.84v-.45a2.78,2.78,0,0,0,.76-.1.25.25,0,0,0,.12-.21,13.63,13.63,0,0,0,.06-1.7,19.84,19.84,0,0,0-.05-2.13.27.27,0,0,0-.08-.16,2.26,2.26,0,0,0-.81-.08v-.46a11.47,11.47,0,0,0,1.36-.2,7.24,7.24,0,0,0,1-.32l.14.07c-.05.63-.07,1.21-.07,1.76v2a8.57,8.57,0,0,0,0,1.24.2.2,0,0,0,.09.14,2.49,2.49,0,0,0,.79.1v.47Z" transform="translate(-0.01 0)"/><path class="a" d="M28.65,101.84v-.47a2.38,2.38,0,0,0,.65-.06.22.22,0,0,0,.12-.11,1,1,0,0,0,.07-.43l0-.53c0-.11,0-.29,0-.54v-.78q0-.54,0-1.29a1.46,1.46,0,0,0,0-.43.19.19,0,0,0-.11-.08,2.93,2.93,0,0,0-.68-.06v-.47q1.09-.18,1.44-.27a4.7,4.7,0,0,0,.77-.29l.17.07v1.21c.25-.26.45-.49.59-.66a2.2,2.2,0,0,1,.47-.47,1,1,0,0,1,.56-.15,1.24,1.24,0,0,1,.4.07L33,97c0,.47,0,.73,0,.8l-.25.08a.94.94,0,0,0-.29-.28,1,1,0,0,0-.48-.12.88.88,0,0,0-.61.22.79.79,0,0,0-.3.44,10,10,0,0,0,0,1v1.41a3,3,0,0,0,0,.57.28.28,0,0,0,.12.16,1,1,0,0,0,.42.08l.49.05v.47Z" transform="translate(-0.01 0)"/><path class="a" d="M42.71,101.84v-.46a2.47,2.47,0,0,0,.84-.13.28.28,0,0,0,.12-.24c0-.21,0-.86,0-2v-1.8h-.16l-.82,0V97c.53-.27.81-.42.83-.44a.16.16,0,0,0,.08-.14c0-.19,0-.42,0-.7a3.8,3.8,0,0,1,.08-.59,1.35,1.35,0,0,1,.18-.33A6.37,6.37,0,0,1,44.8,94l.73-.65a1.13,1.13,0,0,1,.4-.23,1.36,1.36,0,0,1,.51-.09,1.82,1.82,0,0,1,.63.11A7.27,7.27,0,0,0,47,94.28l-.24.11A.92.92,0,0,0,46,94.1a1,1,0,0,0-.55.13.42.42,0,0,0-.19.26,5.28,5.28,0,0,0-.08,1.19v.83h.71l.89,0,.08.06a1.6,1.6,0,0,0-.05.21l-.09.53H45.2v1.92c0,.42,0,.83,0,1.22a4.57,4.57,0,0,0,.05.7.34.34,0,0,0,.09.14.42.42,0,0,0,.21.08l.81.06v.46Z" transform="translate(-0.01 0)"/><path class="a" d="M54.33,101.84l0,0,0-.46c0-.08,0-.23,0-.46a5.29,5.29,0,0,0-.41.34l-.68.64a2.39,2.39,0,0,1-.83.15,1.78,1.78,0,0,1-1.27-.44,1.56,1.56,0,0,1-.46-1.18c0-.06,0-.28,0-.66,0-.21,0-.47,0-.79V97.67a1.2,1.2,0,0,0-.05-.44.33.33,0,0,0-.14-.12,3.36,3.36,0,0,0-.69-.07v-.45a7.42,7.42,0,0,0,1-.14,10.32,10.32,0,0,0,1.34-.39l.08.07q-.09,1.19-.09,2.19V99a8.74,8.74,0,0,0,.05,1.14.86.86,0,0,0,.28.57.88.88,0,0,0,.6.19,1.17,1.17,0,0,0,.73-.22,1.57,1.57,0,0,0,.41-.47,1.78,1.78,0,0,0,.07-.64V97.69a1.17,1.17,0,0,0-.06-.5.24.24,0,0,0-.11-.08,6.69,6.69,0,0,0-.74-.07v-.45c.62-.08,1-.15,1.27-.2a9.29,9.29,0,0,0,1.13-.33l.12.07-.07,1.1c0,.78,0,1.22,0,1.31v1.23a8.51,8.51,0,0,0,.06,1.35.2.2,0,0,0,.09.15,2.61,2.61,0,0,0,.73.09v.48Z" transform="translate(-0.01 0)"/><path class="a" d="M63.31,101.84l-.06,0,0-.47,0-.49-.91.77a2.53,2.53,0,0,1-.37.31,1.67,1.67,0,0,1-.61.09,2.09,2.09,0,0,1-1.64-.73,2.89,2.89,0,0,1-.65-2A3.77,3.77,0,0,1,59.31,98a2.44,2.44,0,0,1,.33-.65,5.65,5.65,0,0,1,.81-.63,6,6,0,0,1,.95-.58,2.31,2.31,0,0,1,.76-.11,3.06,3.06,0,0,1,.47,0,6.09,6.09,0,0,1,.65.23c0-.24,0-.48,0-.74s0-.67,0-1.1a.88.88,0,0,0-.07-.39.19.19,0,0,0-.12-.07,5,5,0,0,0-.74,0v-.44A9.77,9.77,0,0,0,64.71,93l.15.09c0,1.07-.07,1.7-.07,1.89,0,1,0,2.5,0,4.37v.56c0,.27,0,.56,0,.88a1.7,1.7,0,0,0,0,.41.26.26,0,0,0,.14.11,4.73,4.73,0,0,0,.65.08v.43Zm0-4.26a2.36,2.36,0,0,0-.54-.51,1.7,1.7,0,0,0-.86-.23,1.12,1.12,0,0,0-.68.2,1.24,1.24,0,0,0-.39.65,4,4,0,0,0-.12,1,2.69,2.69,0,0,0,.46,1.68,1.12,1.12,0,0,0,.93.43,1.23,1.23,0,0,0,.78-.25,1,1,0,0,0,.39-.48,9.1,9.1,0,0,0,.06-1.43Z" transform="translate(-0.01 0)"/><path class="a" d="M71.32,101.84l0-.07,0-.78c-.14.09-.57.4-1.27.94a2.35,2.35,0,0,1-.51.06,1.31,1.31,0,0,1-1-.38,1.49,1.49,0,0,1-.37-1.1,1.73,1.73,0,0,1,.16-.8,1.47,1.47,0,0,1,.36-.46,2.23,2.23,0,0,1,.58-.28,13,13,0,0,1,2.07-.53A1.64,1.64,0,0,0,71,97.36a1.16,1.16,0,0,0-1-.37,2,2,0,0,0-.49.06l-.24.12-.25.61-.41-.09,0-.77c.3-.2.58-.38.84-.52a3.15,3.15,0,0,1,.57-.27,2,2,0,0,1,.62-.07,2.56,2.56,0,0,1,1.07.19,1.65,1.65,0,0,1,.63.45,1.49,1.49,0,0,1,.27.55,3,3,0,0,1,.08.74c0,.13,0,.46,0,1,0,.36,0,.65,0,.88a7.56,7.56,0,0,0,.06,1.29.23.23,0,0,0,.09.15,3.22,3.22,0,0,0,.61.08v.45Zm0-2.89a6.9,6.9,0,0,0-.93.26,1.14,1.14,0,0,0-.58.37.94.94,0,0,0-.16.57.82.82,0,0,0,.19.59.66.66,0,0,0,.51.21,1.1,1.1,0,0,0,.54-.15,1.28,1.28,0,0,0,.43-.4Z" transform="translate(-0.01 0)"/><path class="a" d="M23.8,93.17a.92.92,0,1,1-.64,1.57.89.89,0,0,1-.27-.65.92.92,0,0,1,.26-.65A.89.89,0,0,1,23.8,93.17Z" transform="translate(-0.01 0)"/><path class="a" d="M35.92,101.84v-.45a3,3,0,0,0,.77-.1.31.31,0,0,0,.12-.21,13.63,13.63,0,0,0,.06-1.7,18.42,18.42,0,0,0-.06-2.13.22.22,0,0,0-.08-.16,2.26,2.26,0,0,0-.81-.08v-.46a11.47,11.47,0,0,0,1.36-.2,7.24,7.24,0,0,0,1-.32l.14.07c0,.63-.07,1.21-.07,1.76v2a8.57,8.57,0,0,0,0,1.24.22.22,0,0,0,.1.14,2.36,2.36,0,0,0,.78.1v.47Z" transform="translate(-0.01 0)"/><path class="a" d="M37.56,93.17a.88.88,0,0,1,.65.27.92.92,0,0,1,0,1.3.91.91,0,0,1-1.29,0,.92.92,0,0,1,0-1.3A.85.85,0,0,1,37.56,93.17Z" transform="translate(-0.01 0)"/></svg>